<svg xmlns="http://www.w3.org/2000/svg" width="256" height="256" viewBox="0 0 100 100"><rect width="100" height="100" rx="20" fill="#191716"></rect><path d="M44.96 28.40Q44.96 30.47 44.60 32.00L44.60 32.00L39.20 32.00Q39.56 33.44 39.56 35.60L39.56 35.60Q39.56 37.67 39.20 39.20L39.20 39.20Q39.56 40.64 39.56 42.80L39.56 42.80Q39.56 44.87 39.20 46.40L39.20 46.40Q39.56 47.84 39.56 50L39.56 50Q39.56 52.07 39.20 53.60L39.20 53.60Q39.56 55.04 39.56 57.20L39.56 57.20Q39.56 59.27 39.20 60.80L39.20 60.80Q39.56 62.24 39.56 64.40L39.56 64.40Q39.56 66.47 39.20 68L39.20 68L35.60 68Q35.96 69.44 35.96 71.60L35.96 71.60Q35.96 73.67 35.60 75.20L35.60 75.20L21.20 75.20Q20.84 73.67 20.84 71.60L20.84 71.60Q20.84 69.44 21.20 68L21.20 68L17.60 68Q17.24 66.47 17.24 64.40L17.24 64.40Q17.24 62.24 17.60 60.80L17.60 60.80L24.80 60.80Q25.16 62.24 25.16 64.40L25.16 64.40Q25.16 66.47 24.80 68L24.80 68L32 68Q31.64 66.47 31.64 64.40L31.64 64.40Q31.64 62.24 32 60.80L32 60.80Q31.64 59.27 31.64 57.20L31.64 57.20Q31.64 55.04 32 53.60L32 53.60Q31.64 52.07 31.64 50L31.64 50Q31.64 47.84 32 46.40L32 46.40Q31.64 44.87 31.64 42.80L31.64 42.80Q31.64 40.64 32 39.20L32 39.20Q31.64 37.67 31.64 35.60L31.64 35.60Q31.64 33.44 32 32.00L32 32.00L26.60 32.00Q26.24 30.47 26.24 28.40L26.24 28.40Q26.24 26.24 26.60 24.80L26.60 24.80L44.60 24.80Q44.96 26.24 44.96 28.40L44.96 28.40ZM82.40 46.40Q82.76 47.84 82.76 50L82.76 50Q82.76 52.07 82.40 53.60L82.40 53.60Q82.76 55.04 82.76 57.20L82.76 57.20Q82.76 59.27 82.40 60.80L82.40 60.80Q82.76 62.24 82.76 64.40L82.76 64.40Q82.76 66.47 82.40 68L82.40 68L78.80 68Q79.16 69.44 79.16 71.60L79.16 71.60Q79.16 73.67 78.80 75.20L78.80 75.20L60.80 75.20Q60.44 73.67 60.44 71.60L60.44 71.60Q60.44 69.44 60.80 68L60.80 68L57.20 68Q56.84 66.47 56.84 64.40L56.84 64.40Q56.84 62.24 57.20 60.80L57.20 60.80L53.60 60.80Q53.24 59.27 53.24 57.20L53.24 57.20Q53.24 55.04 53.60 53.60L53.60 53.60Q53.24 52.07 53.24 50L53.24 50Q53.24 47.84 53.60 46.40L53.60 46.40Q53.24 44.87 53.24 42.80L53.24 42.80Q53.24 40.64 53.60 39.20L53.60 39.20L57.20 39.20Q56.84 37.67 56.84 35.60L56.84 35.60Q56.84 33.44 57.20 32.00L57.20 32.00L60.80 32.00Q60.44 30.47 60.44 28.40L60.44 28.40Q60.44 26.24 60.80 24.80L60.80 24.80L78.80 24.80Q79.16 26.24 79.16 28.40L79.16 28.40Q79.16 30.47 78.80 32.00L78.80 32.00L82.40 32.00Q82.76 33.44 82.76 35.60L82.76 35.60Q82.76 37.67 82.40 39.20L82.40 39.20L75.20 39.20Q74.84 37.67 74.84 35.60L74.84 35.60Q74.84 33.44 75.20 32.00L75.20 32.00L64.40 32.00Q64.76 33.44 64.76 35.60L64.76 35.60Q64.76 37.67 64.40 39.20L64.40 39.20L60.80 39.20Q61.16 40.64 61.16 42.80L61.16 42.80Q61.16 44.87 60.80 46.40L60.80 46.40Q61.16 47.84 61.16 50L61.16 50Q61.16 52.07 60.80 53.60L60.80 53.60Q61.16 55.04 61.16 57.20L61.16 57.20Q61.16 59.27 60.80 60.80L60.80 60.80L64.40 60.80Q64.76 62.24 64.76 64.40L64.76 64.40Q64.76 66.47 64.40 68L64.40 68L75.20 68Q74.84 66.47 74.84 64.40L74.84 64.40Q74.84 62.24 75.20 60.80L75.20 60.80Q74.84 59.27 74.84 57.20L74.84 57.20Q74.84 55.04 75.20 53.60L75.20 53.60L69.80 53.60Q69.44 52.07 69.44 50L69.44 50Q69.44 47.84 69.80 46.40L69.80 46.40L82.40 46.40Z" fill="#fff"></path></svg>